<svg width="57" height="114" viewBox="0 0 57 114" fill="none" xmlns="http://www.w3.org/2000/svg">
<path d="M39.9842 1.70437C44.0836 1.72721 48.0177 3.31583 50.9177 6.1383L51.1857 6.4064C53.9195 9.20266 55.4474 12.9183 55.4259 16.7905C55.4027 20.9588 53.6161 24.67 50.7985 27.3802L50.7926 27.386L29.4135 47.7351L28.3679 48.7313L27.3335 47.7236L6.18201 27.1378L6.17619 27.1319C3.38893 24.3906 1.64376 20.6597 1.66694 16.4915L1.67391 16.1175C1.7949 12.2573 3.45185 8.59482 6.29337 5.89008L6.57117 5.63283C9.47097 3.00612 13.3022 1.55775 17.2726 1.57901L17.2726 1.57804L17.2736 1.57902L17.2755 1.57805L17.2755 1.57903C19.7202 1.58696 22.1302 2.15471 24.3064 3.23926L24.7115 3.44854C26.1661 4.22718 27.48 5.22708 28.6033 6.40871C31.4548 3.47469 35.5123 1.67949 39.9842 1.70437ZM39.6231 7.27862C38.0982 7.31653 36.6054 7.69339 35.2624 8.37743L34.9764 8.52916C33.4669 9.36085 32.2211 10.559 31.3594 11.9954L30.9198 12.7283L26.2177 12.7022L25.7862 11.9644C24.1222 9.11998 20.9363 7.16979 17.2445 7.14926C14.7776 7.13563 12.41 8.00737 10.5962 9.57032L10.2409 9.89257C8.38922 11.6553 7.35255 14.0415 7.33873 16.523L7.33869 16.5308C7.32575 17.7565 7.56571 18.9741 8.04729 20.1129L8.23928 20.5349C8.64366 21.3699 9.17525 22.145 9.8193 22.8328L10.1504 23.1686L10.1534 23.1716L28.4114 40.916L46.8657 23.3758C48.587 21.7113 49.7408 19.3206 49.7551 16.7589C49.768 14.4324 48.8806 12.1792 47.2599 10.4374L46.9259 10.0966C45.0918 8.31155 42.5847 7.29024 39.9532 7.27557L39.9512 7.27556L39.6231 7.27862Z" fill="#E85D75" stroke="#E85D75" stroke-width="3"/>
<path d="M23 109C23 111.761 25.2386 114 28 114C30.7614 114 33 111.761 33 109H23ZM28 45H23L23 109H28H33V45H28Z" fill="#E85D75"/>
<path d="M37 103C39.7614 103 42 100.761 42 98C42 95.2386 39.7614 93 37 93V103ZM26 98V103H37V98V93H26V98Z" fill="#E85D75"/>
</svg>
